<?xml version="1.0" encoding="UTF-8"?>
<svg id="Layer_2" data-name="Layer 2" xmlns="http://www.w3.org/2000/svg" viewBox="0 0 370.6 55.34">
  <defs>
    <style>
      .cls-1 {
        fill: #abd69c;
      }

      .cls-2 {
        fill: #45573f;
      }

      .cls-3 {
        fill: #293325;
      }

      .cls-4 {
        fill: #78966e;
      }
    </style>
  </defs>
  <g id="Artwork">
    <path class="cls-1" d="m342.87,1.73s-9.44-3.46-19.67-.59c-10.23,2.87-15.25,4.21-28.92,3.1-4.49-.36-8.2-.85-11.92,0-7.4,1.69-16.77,7.05-16.77,7.05,0,0-14.16,7.75-25.07,4.42-17.22-5.26-30.65,4.1-30.65,4.1l-37.54,16.36,198.25-3.37V1.42c-13.8,4.27-27.7.31-27.7.31Z"/>
    <path class="cls-4" d="m307.85,29.1c0-1.4-.9-2.63-2.22-3.08-3.35-1.13-10.42-2.63-20.45-.1-14.34,3.62-28.34-.97-29.72-1.44-.07-.02-.14-.05-.21-.08-1.03-.44-10.3-4.17-20.71-1.95-11.05,2.35-16.48,3.43-30.89,1.3-4.73-.7-8.63-1.48-12.64-.83-7.97,1.29-18.3,6.35-18.3,6.35,0,0-15.58,7.29-26.9,2.98-17.15-6.53-31.58,1.54-32.72,2.21-.06.03-.11.06-.16.09l-28.42,14.4c-3.08,1.56-1.95,6.22,1.51,6.18l219.63-.23c1.8-.02,2.34-3.51,2.33-5.31l-.13-20.49Z"/>
    <path class="cls-2" d="m350.98,19.66s-8.09-3.82-21.34.44c-13.94,4.48-28.11.44-28.11.44,0,0-9.44-3.46-19.67-.59-10.23,2.87-15.25,4.21-28.92,3.1-4.49-.36-8.2-.85-11.92,0-7.4,1.69-16.77,7.05-16.77,7.05,0,0-14.16,7.75-25.07,4.42-12.78-3.9-23.47.24-28.13,2.64-1.62.83-3.11,1.68-3.11,1.68l-10.9,5.71-20.23,10.43,213.99.37.2-35.68Z"/>
    <path class="cls-3" d="m59.93,31.07C44.79,22.09,28.6,15.94,0,12.79v42.07l123.84.34s-38.81-9.23-63.92-24.13Z"/>
    <path class="cls-3" d="m195.85,54.77l174.75.39-.06-47.21c-62.85.55-88.57,7.93-110.8,21.68-25.09,15.51-63.88,25.14-63.88,25.14Z"/>
  </g>
</svg>