<?xml version="1.0" encoding="UTF-8"?>
<svg id="Layer_2" data-name="Layer 2" xmlns="http://www.w3.org/2000/svg" viewBox="0 0 378.5 55.27">
  <defs>
    <style>
      .cls-1 {
        fill: #abd69c;
      }

      .cls-2 {
        fill: #45573f;
      }

      .cls-3 {
        fill: #293325;
      }

      .cls-4 {
        fill: #3c4b37;
      }

      .cls-5 {
        fill: #78966e;
      }
    </style>
  </defs>
  <g id="Artwork">
    <path class="cls-1" d="m350.8,1.73s-9.44-3.46-19.67-.59c-10.23,2.87-15.25,4.21-28.92,3.1-4.49-.36-8.2-.85-11.92,0-7.4,1.69-16.77,7.05-16.77,7.05,0,0-14.16,7.75-25.07,4.42-17.22-5.26-30.65,4.1-30.65,4.1l-37.54,16.36,198.25-3.37V1.42c-13.8,4.27-27.7.31-27.7.31Z"/>
    <path class="cls-5" d="m315.64,26.9s-8.43-4.71-23-1.05c-15.33,3.84-30.29-1.54-30.29-1.54,0,0-9.91-4.41-21.13-2.04-11.22,2.37-16.73,3.45-31.36,1.28-4.8-.71-8.76-1.51-12.83-.86-8.09,1.29-18.57,6.41-18.57,6.41,0,0-15.81,7.36-27.31,2.98-18.15-6.91-33.29,2.23-33.29,2.23l-41.61,20.97,239.6-2.15-.2-26.22Z"/>
    <path class="cls-2" d="m358.92,19.3s-8.09-3.82-21.34.44c-13.94,4.48-28.11.44-28.11.44,0,0-9.44-3.46-19.67-.59-10.23,2.87-15.25,4.21-28.92,3.1-4.49-.36-8.2-.85-11.92,0-7.4,1.69-16.77,7.05-16.77,7.05,0,0-14.16,7.75-25.07,4.42-12.78-3.9-23.47.24-28.13,2.64-1.62.83-3.11,1.68-3.11,1.68l-10.9,5.71-20.23,10.43,213.99.37.2-35.68Z"/>
    <path class="cls-4" d="m59.93,30.87C44.79,21.89,28.6,15.74,0,12.59v42.07l123.84.34s-38.81-9.23-63.92-24.13Z"/>
    <path class="cls-3" d="m203.76,54.16l174.75.6V8.06c-62.85.47-88.58,7.74-110.83,21.31-25.11,15.31-63.92,24.8-63.92,24.8Z"/>
  </g>
</svg>